<?xml version="1.0" encoding="UTF-8" standalone="no"?>
<!-- Created with Inkscape (http://www.inkscape.org/) -->

<svg
   xmlns:dc="http://purl.org/dc/elements/1.1/"
   xmlns:cc="http://creativecommons.org/ns#"
   xmlns:rdf="http://www.w3.org/1999/02/22-rdf-syntax-ns#"
   xmlns:svg="http://www.w3.org/2000/svg"
   xmlns="http://www.w3.org/2000/svg"
   xmlns:sodipodi="http://sodipodi.sourceforge.net/DTD/sodipodi-0.dtd"
   xmlns:inkscape="http://www.inkscape.org/namespaces/inkscape"
   width="256px"
   height="256px"
   viewBox="0 0 256 256"
   version="1.1"
   id="SVGRoot"
   inkscape:version="0.92.5 (2060ec1f9f, 2020-04-08)"
   sodipodi:docname="veneu-offset-colorized-dark.svg">
  <defs
     id="defs7493">
    <path
       inkscape:connector-curvature="0"
       id="b3eLhFgD6R"
       d="m 435.56,78.67 0.81,0.17 0.77,0.22 0.72,0.3 0.66,0.35 0.61,0.41 0.56,0.48 0.51,0.55 0.46,0.6 0.4,0.67 0.36,0.73 0.3,0.8 0.25,0.85 0.2,0.93 0.15,0.98 0.09,1.05 0.05,1.11 -0.01,1.17 -0.06,1.24 -0.11,1.29 -0.16,1.37 -0.22,1.42 -0.26,1.49 -0.35,1.76 -0.46,2.25 -0.57,2.74 -0.68,3.22 -0.79,3.71 -0.9,4.19 -1.01,4.68 -1.12,5.16 -1.23,5.65 -1.34,6.14 -1.46,6.62 -1.56,7.11 -1.67,7.6 -1.79,8.08 -1.89,8.57 -2.01,9.05 -2.12,9.54 -2.22,10.03 -2.34,10.51 -2.45,11 -2.56,11.48 -2.67,11.97 -2.78,12.46 -2.89,12.94 -3,13.43 -3.12,13.91 -3.22,14.4 -3.33,14.89 -3.45,15.37 -3.55,15.86 -3.67,16.34 -3.77,16.83 -3.89,17.32 -4,17.8 -4.11,18.29 -4.21,18.77 -4.33,19.27 -4.44,19.74 -4.55,20.23 -4.67,20.72 -0.02,0.53 -0.06,0.52 -0.07,0.52 -0.1,0.5 -0.13,0.5 -0.14,0.49 -0.18,0.48 -0.19,0.47 -0.22,0.47 -0.24,0.46 -0.26,0.45 -0.29,0.44 -0.32,0.44 -0.33,0.42 -0.36,0.42 -0.38,0.41 -0.41,0.41 -0.43,0.4 -0.46,0.38 -0.47,0.38 -0.5,0.38 -0.53,0.36 -0.55,0.36 -0.57,0.35 -0.6,0.34 -0.62,0.33 -0.64,0.33 -0.66,0.32 -0.69,0.31 -0.72,0.3 -0.74,0.3 -0.39,0.15 -0.32,0.34 -0.9,0.41 -0.95,0.22 -0.93,0.19 -0.92,0.18 -0.25,0.05 -0.25,0.07 -0.91,0.24 -0.92,0.23 -0.95,0.22 -0.99,0.02 -0.43,-0.16 -0.43,0.03 -0.79,0.06 -0.77,0.04 -0.76,0.02 -0.74,0.01 -0.72,-0.01 -0.7,-0.03 -0.69,-0.05 -0.66,-0.07 -0.65,-0.08 -0.64,-0.1 -0.61,-0.11 -0.6,-0.14 -0.57,-0.15 -0.56,-0.17 -0.55,-0.18 -0.52,-0.2 -0.51,-0.22 -0.49,-0.24 -0.47,-0.26 -0.45,-0.27 -0.44,-0.29 -0.41,-0.3 -0.4,-0.33 -0.39,-0.34 -0.36,-0.36 -0.35,-0.37 -0.33,-0.4 -0.31,-0.41 -0.29,-0.43 -0.27,-0.44 -0.26,-0.46 -13.25,-16.6 -12.94,-16.21 -12.62,-15.82 -12.32,-15.43 -12,-15.04 -11.69,-14.65 -11.38,-14.26 -11.06,-13.88 -10.76,-13.49 -10.44,-13.09 -10.13,-12.71 -9.81,-12.32 -9.51,-11.93 -9.19,-11.55 -8.89,-11.15 -8.57,-10.76 -8.25,-10.38 -7.95,-9.99 -7.63,-9.6 -7.33,-9.2 -7.01,-8.83 -6.69,-8.43 -6.39,-8.04 -6.07,-7.66 -5.77,-7.26 -5.45,-6.88 -5.14,-6.49 -4.82,-6.1 -4.52,-5.71 -4.2,-5.32 -3.89,-4.93 -3.58,-4.54 -3.26,-4.16 -2.96,-3.77 -2.64,-3.37 -2.33,-2.99 -2.02,-2.6 -1.71,-2.22 -1.39,-1.82 -1.08,-1.43 -0.89,-1.22 -0.82,-1.19 -0.74,-1.16 -0.67,-1.12 -0.59,-1.08 -0.52,-1.05 -0.45,-1.02 -0.37,-0.98 -0.3,-0.95 -0.22,-0.92 -0.15,-0.88 -0.08,-0.85 v -0.81 l 0.08,-0.78 0.14,-0.74 0.22,-0.71 0.3,-0.68 0.37,-0.64 0.44,-0.61 0.51,-0.57 0.59,-0.54 0.67,-0.51 0.74,-0.47 0.81,-0.44 0.89,-0.4 0.96,-0.37 1.03,-0.33 1.11,-0.3 1.18,-0.27 1.26,-0.23 1.33,-0.2 1.4,-0.16 1.48,-0.13 1.55,-0.1 1.63,-0.06 1.7,-0.03 1.77,0.01 1.85,0.04 1.93,0.08 1.99,0.1 211.92,68.18 160.79,-153.96 1.75,-0.97 1.7,-0.91 1.64,-0.84 1.6,-0.78 1.54,-0.72 1.49,-0.66 1.43,-0.59 1.39,-0.53 1.34,-0.47 1.28,-0.4 1.23,-0.34 1.18,-0.28 1.13,-0.21 1.08,-0.15 1.02,-0.09 0.97,-0.03 0.93,0.04 z" />
    <path
       inkscape:connector-curvature="0"
       id="bNmUTvdyB"
       d="m 207.84,78.53 1.08,0.15 1.13,0.21 1.18,0.27 1.23,0.34 1.29,0.4 1.33,0.46 1.39,0.52 1.44,0.59 1.49,0.65 1.55,0.71 1.59,0.78 1.65,0.84 1.7,0.9 1.75,0.96 161.39,153.34 211.65,-68.99 2,-0.12 1.92,-0.08 1.85,-0.05 1.77,-0.01 1.7,0.02 1.63,0.05 1.55,0.09 1.48,0.13 1.41,0.15 1.33,0.2 1.25,0.22 1.19,0.27 1.11,0.29 1.03,0.33 0.97,0.37 0.88,0.4 0.82,0.43 0.74,0.47 0.66,0.5 0.6,0.54 0.52,0.57 0.44,0.61 0.37,0.64 0.3,0.67 0.22,0.71 0.15,0.75 0.08,0.77 v 0.82 l -0.08,0.84 -0.14,0.89 -0.22,0.91 -0.3,0.95 -0.36,0.99 -0.45,1.02 -0.51,1.05 -0.59,1.09 -0.66,1.12 -0.74,1.16 -0.81,1.19 -0.89,1.22 -1.07,1.44 -1.39,1.83 -1.7,2.22 -2.01,2.61 -2.32,2.99 -2.63,3.39 -2.94,3.78 -3.25,4.17 -3.56,4.56 -3.87,4.94 -4.18,5.34 -4.49,5.73 -4.81,6.12 -5.11,6.51 -5.42,6.89 -5.74,7.29 -6.04,7.68 -6.36,8.07 -6.66,8.46 -6.98,8.84 -7.28,9.24 -7.6,9.63 -7.91,10.02 -8.22,10.4 -8.53,10.8 -8.83,11.19 -9.15,11.58 -9.46,11.96 -9.77,12.36 -10.08,12.75 -10.4,13.14 -10.7,13.53 -11.01,13.91 -11.32,14.31 -11.63,14.7 -11.95,15.09 -12.25,15.47 -12.57,15.87 -12.87,16.26 -13.19,16.65 -0.25,0.46 -0.28,0.45 -0.29,0.42 -0.31,0.42 -0.32,0.39 -0.35,0.38 -0.36,0.36 -0.38,0.34 -0.4,0.33 -0.42,0.3 -0.43,0.3 -0.45,0.27 -0.47,0.26 -0.49,0.24 -0.51,0.22 -0.52,0.2 -0.54,0.19 -0.56,0.17 -0.58,0.15 -0.6,0.14 -0.61,0.12 -0.63,0.1 -0.65,0.08 -0.67,0.07 -0.68,0.05 -0.7,0.03 -0.72,0.02 h -0.74 l -0.76,-0.02 -0.77,-0.04 -0.8,-0.05 -0.42,-0.04 -0.44,0.17 -0.98,-0.02 -0.95,-0.22 -0.93,-0.23 -0.9,-0.23 -0.25,-0.07 -0.26,-0.05 -0.91,-0.17 -0.94,-0.2 -0.95,-0.2 -0.9,-0.42 -0.32,-0.33 -0.4,-0.15 -0.73,-0.3 -0.72,-0.3 -0.69,-0.3 -0.67,-0.32 -0.64,-0.32 -0.62,-0.33 -0.6,-0.34 -0.57,-0.35 -0.55,-0.36 -0.53,-0.36 -0.5,-0.37 -0.48,-0.38 -0.46,-0.39 -0.43,-0.39 -0.41,-0.4 -0.38,-0.41 -0.36,-0.42 -0.34,-0.43 -0.31,-0.43 -0.3,-0.44 -0.26,-0.45 -0.25,-0.46 -0.22,-0.47 -0.19,-0.47 -0.17,-0.48 -0.15,-0.49 -0.13,-0.5 -0.1,-0.5 -0.08,-0.51 -0.05,-0.52 -0.04,-0.53 -4.74,-20.7 -4.62,-20.22 -4.52,-19.73 -4.4,-19.24 -4.3,-18.76 -4.17,-18.27 -4.07,-17.79 -3.95,-17.3 -3.84,-16.82 -3.73,-16.33 -3.62,-15.84 -3.5,-15.36 -3.39,-14.87 -3.28,-14.39 -3.17,-13.9 -3.05,-13.42 -2.94,-12.93 -2.83,-12.44 -2.72,-11.96 -2.6,-11.48 -2.49,-10.99 -2.38,-10.5 -2.27,-10.02 -2.15,-9.53 -2.04,-9.04 -1.93,-8.56 -1.82,-8.08 -1.7,-7.59 -1.59,-7.1 -1.48,-6.62 -1.37,-6.13 -1.25,-5.65 -1.14,-5.16 -1.03,-4.67 -0.92,-4.19 -0.8,-3.71 -0.69,-3.21 -0.58,-2.74 -0.47,-2.24 -0.35,-1.77 -0.27,-1.48 -0.22,-1.43 -0.17,-1.36 -0.11,-1.3 -0.07,-1.23 -0.01,-1.18 0.04,-1.11 0.09,-1.04 0.14,-0.99 0.2,-0.92 0.25,-0.86 0.3,-0.79 0.35,-0.74 0.4,-0.67 0.45,-0.61 0.51,-0.54 0.56,-0.48 0.61,-0.42 0.66,-0.36 0.72,-0.29 0.76,-0.23 0.82,-0.17 0.87,-0.1 0.92,-0.04 0.97,0.02 z" />
    <path
       inkscape:connector-curvature="0"
       id="m2vIXQ4mH"
       d="m 322.13,561.5 -0.8,-0.05 -0.26,-0.01 h -0.18 l 0.1,-0.04 0.42,0.04 0.75,0.05 v 0 z m -17.57,-6.24 0.48,0.37 0.5,0.37 0.53,0.37 0.55,0.35 0.57,0.35 0.6,0.34 0.62,0.33 0.64,0.33 0.67,0.31 0.69,0.31 0.72,0.3 0.73,0.29 0.4,0.15 0.32,0.34 0.9,0.41 0.95,0.21 0.94,0.19 0.91,0.18 0.26,0.04 0.25,0.07 0.9,0.24 0.93,0.23 0.51,0.12 h -0.21 l -0.98,-0.02 -0.95,-0.22 -0.38,-0.27 -0.43,-0.07 -0.78,-0.13 -0.76,-0.15 -0.74,-0.17 -0.72,-0.17 -0.69,-0.19 -0.68,-0.2 -0.65,-0.22 -0.63,-0.22 -0.61,-0.24 -0.59,-0.25 -0.56,-0.26 -0.55,-0.28 -0.52,-0.29 -0.51,-0.3 -0.48,-0.31 -0.46,-0.32 -0.43,-0.34 -0.42,-0.35 -0.39,-0.36 -0.38,-0.38 -0.35,-0.38 -0.33,-0.4 -0.31,-0.41 -0.22,-0.33 0.25,0.24 0.43,0.4 v 0 z m -72.75,-307.01 2.83,12.45 2.94,12.93 3.05,13.41 3.17,13.91 3.28,14.38 3.39,14.88 3.5,15.35 3.62,15.85 3.73,16.33 3.84,16.82 3.95,17.3 4.07,17.78 4.17,18.28 4.3,18.75 4.4,19.25 4.52,19.73 4.62,20.21 4.66,20.34 -6.69,-14.72 -8.59,-18.88 -8.37,-18.42 -8.17,-17.97 -7.96,-17.52 -7.75,-17.07 -7.55,-16.61 -7.34,-16.16 -7.13,-15.71 -6.92,-15.25 -6.72,-14.8 -6.51,-14.34 -6.3,-13.9 -6.09,-13.43 -5.89,-12.99 -5.68,-12.53 -5.47,-12.08 -5.26,-11.63 -5.06,-11.17 -4.85,-10.72 -4.64,-10.27 -4.44,-9.81 -4.22,-9.36 -4.02,-8.91 -2.43,-5.4 82.57,26.57 0.72,3.17 v 0 z m 186.66,-45.3 -2.34,10.51 -2.45,11 -1.85,8.3 -22.8,7.44 -27.75,-26.37 62.68,-35.62 -1.15,5.17 -2.12,9.54 v 0 z" />
    <filter
       id="filter964"
       inkscape:label="Drop Shadow"
       style="color-interpolation-filters:sRGB">
      <feFlood
         id="feFlood954"
         result="flood"
         flood-color="rgb(6,54,149)"
         flood-opacity="0.690196" />
      <feComposite
         id="feComposite956"
         result="composite1"
         operator="in"
         in2="SourceGraphic"
         in="flood" />
      <feGaussianBlur
         id="feGaussianBlur958"
         result="blur"
         stdDeviation="7.7"
         in="composite1" />
      <feOffset
         id="feOffset960"
         result="offset"
         dy="7"
         dx="7" />
      <feComposite
         id="feComposite962"
         result="composite2"
         operator="atop"
         in2="offset"
         in="offset" />
    </filter>
    <filter
       id="filter964-3"
       inkscape:label="Drop Shadow"
       style="color-interpolation-filters:sRGB">
      <feFlood
         id="feFlood954-6"
         result="flood"
         flood-color="rgb(6,54,149)"
         flood-opacity="0.690196" />
      <feComposite
         id="feComposite956-7"
         result="composite1"
         operator="in"
         in2="SourceGraphic"
         in="flood" />
      <feGaussianBlur
         id="feGaussianBlur958-5"
         result="blur"
         stdDeviation="7.7"
         in="composite1" />
      <feOffset
         id="feOffset960-3"
         result="offset"
         dy="7"
         dx="7" />
      <feComposite
         id="feComposite962-5"
         result="composite2"
         operator="atop"
         in2="offset"
         in="offset" />
    </filter>
    <filter
       id="filter1012"
       inkscape:label="Drop Shadow"
       style="color-interpolation-filters:sRGB">
      <feFlood
         id="feFlood1002"
         result="flood"
         flood-color="rgb(138, 0, 15)"
         flood-opacity="0.690196" />
      <feComposite
         id="feComposite1004"
         result="composite1"
         operator="in"
         in2="SourceGraphic"
         in="flood" />
      <feGaussianBlur
         id="feGaussianBlur1006"
         result="blur"
         stdDeviation="7.7"
         in="composite1" />
      <feOffset
         id="feOffset1008"
         result="offset"
         dy="7"
         dx="7" />
      <feComposite
         id="feComposite1010"
         result="composite2"
         operator="atop"
         in2="offset"
         in="offset" />
    </filter>
    <filter
       id="filter1012-9"
       inkscape:label="Drop Shadow"
       style="color-interpolation-filters:sRGB">
      <feFlood
         id="feFlood1002-1"
         result="flood"
         flood-color="rgb(138, 0, 15)"
         flood-opacity="0.690196" />
      <feComposite
         id="feComposite1004-2"
         result="composite1"
         operator="in"
         in2="SourceGraphic"
         in="flood" />
      <feGaussianBlur
         id="feGaussianBlur1006-7"
         result="blur"
         stdDeviation="7.7"
         in="composite1" />
      <feOffset
         id="feOffset1008-0"
         result="offset"
         dy="7"
         dx="7" />
      <feComposite
         id="feComposite1010-9"
         result="composite2"
         operator="atop"
         in2="offset"
         in="offset" />
    </filter>
    <filter
       id="filter1890"
       inkscape:label="Drop Shadow"
       style="color-interpolation-filters:sRGB">
      <feFlood
         id="feFlood1880"
         result="flood"
         flood-color="rgb(255,255,255)"
         flood-opacity="1" />
      <feComposite
         id="feComposite1882"
         result="composite1"
         operator="out"
         in2="SourceGraphic"
         in="flood" />
      <feGaussianBlur
         id="feGaussianBlur1884"
         result="blur"
         stdDeviation="10"
         in="composite1" />
      <feOffset
         id="feOffset1886"
         result="offset"
         dy="0"
         dx="0" />
      <feComposite
         id="feComposite1888"
         result="composite2"
         operator="atop"
         in2="SourceGraphic"
         in="offset" />
    </filter>
    <filter
       inkscape:collect="always"
       style="color-interpolation-filters:sRGB"
       id="filter8303"
       x="-0.071307394"
       width="1.1426148"
       y="-0.081252474"
       height="1.1625049">
      <feGaussianBlur
         inkscape:collect="always"
         stdDeviation="13.059349"
         id="feGaussianBlur8305" />
    </filter>
    <filter
       inkscape:collect="always"
       style="color-interpolation-filters:sRGB"
       id="filter8311"
       x="-0.07130699"
       width="1.142614"
       y="-0.067231686"
       height="1.1344634">
      <feGaussianBlur
         inkscape:collect="always"
         stdDeviation="13.059349"
         id="feGaussianBlur8313" />
    </filter>
    <filter
       inkscape:collect="always"
       style="color-interpolation-filters:sRGB"
       id="filter8315"
       x="-0.071307395"
       width="1.1426148"
       y="-0.081252476"
       height="1.162505">
      <feGaussianBlur
         inkscape:collect="always"
         stdDeviation="13.059349"
         id="feGaussianBlur8317" />
    </filter>
    <filter
       inkscape:collect="always"
       style="color-interpolation-filters:sRGB"
       id="filter4619"
       x="-0.071709431"
       width="1.1434189"
       y="-0.067611127"
       height="1.1352223">
      <feGaussianBlur
         inkscape:collect="always"
         stdDeviation="13.133053"
         id="feGaussianBlur4621" />
    </filter>
  </defs>
  <sodipodi:namedview
     id="base"
     pagecolor="#ffffff"
     bordercolor="#666666"
     borderopacity="1.0"
     inkscape:pageopacity="0.0"
     inkscape:pageshadow="2"
     inkscape:zoom="2.8284271"
     inkscape:cx="70.812286"
     inkscape:cy="127.6143"
     inkscape:document-units="px"
     inkscape:current-layer="g8325"
     showgrid="false"
     inkscape:window-width="1920"
     inkscape:window-height="1016"
     inkscape:window-x="0"
     inkscape:window-y="27"
     inkscape:window-maximized="1"
     inkscape:grid-bbox="true"
     inkscape:object-paths="true"
     inkscape:snap-intersection-paths="true"
     inkscape:snap-smooth-nodes="true"
     inkscape:snap-midpoints="true"
     inkscape:snap-center="true"
     inkscape:snap-text-baseline="true"
     inkscape:snap-object-midpoints="true"
     inkscape:snap-page="true" />
  <metadata
     id="metadata7496">
    <rdf:RDF>
      <cc:Work
         rdf:about="">
        <dc:format>image/svg+xml</dc:format>
        <dc:type
           rdf:resource="http://purl.org/dc/dcmitype/StillImage" />
        <dc:title />
      </cc:Work>
    </rdf:RDF>
  </metadata>
  <g
     inkscape:label="Layer 1"
     inkscape:groupmode="layer"
     id="layer1">
    <rect
       style="opacity:1;fill:#3d3d3d;fill-opacity:1;stroke:none;stroke-width:1.01319611;stroke-miterlimit:4;stroke-dasharray:none;stroke-opacity:1"
       id="rect8215"
       width="256"
       height="256"
       x="0"
       y="0" />
    <g
       id="g7670"
       transform="matrix(0.40793927,0,0,0.40793927,-41.429464,26.561152)"
       style="fill:#dfdfdf;fill-opacity:1;stroke:#000000;stroke-opacity:1">
      <g
         id="g925"
         style="fill:#dfdfdf;fill-opacity:1;stroke:#000000;stroke-opacity:1" />
      <g
         id="g8325"
         transform="matrix(0.91918185,0,0,0.91918185,33.384586,20.086795)">
        <path
           style="fill:#ffffff;fill-opacity:0.03529412;stroke:none;stroke-width:1.65337944px;stroke-linecap:butt;stroke-linejoin:miter;stroke-opacity:1;filter:url(#filter8303)"
           d="M 512.01464,-4.1524896 C 500.04396,-4.4303516 490.90049,2.023751 490.90049,2.023751 l -69.50425,52.38314 c 15.64422,8.887661 52.20643,25.309657 93.04579,13.501551 13.09568,-3.786421 10.33539,-2.98894 21.60726,-6.248057 l 6.84176,-23.824012 c 0,0 5.86432,-22.935915 -13.39143,-36.200432 -6.01744,-4.1451685 -12.04378,-5.6621316 -17.48498,-5.7884306 z M 138.23235,64.691051 c -7.88524,-0.02491 -19.9528,2.199218 -28.24314,14.23408 -13.264531,19.255768 0.38302,38.594329 0.38302,38.594329 L 308.63915,381.58011 224.36936,88.132037 146.18964,65.528914 c 0,0 -3.22615,-0.822914 -7.95729,-0.837863 z"
           id="path8293"
           inkscape:connector-curvature="0" />
        <path
           transform="translate(19.610763,19.610763)"
           d="m 297.72852,15.541016 c -6.22043,-0.456437 -13.45292,0.732831 -20.67383,5.707031 -19.25577,13.264527 -13.39453,36.201172 -13.39453,36.201172 L 376.31836,449.75 c 0,0 8.51408,26.78781 32.9043,31.28125 24.39023,4.49342 41.89257,-17.50195 41.89257,-17.50195 L 696.17969,137.13281 c 0,0 13.65126,-19.34189 0.38672,-38.597654 -13.26454,-19.255781 -36.20118,-13.392578 -36.20118,-13.392578 0,0 -46.16931,13.34889 -117.20117,33.886722 C 472.1322,139.56712 413.08203,95.064453 413.08203,95.064453 L 315.65039,21.634766 c 0,0 -7.5545,-5.333023 -17.92187,-6.09375 z"
           id="path8295"
           style="fill:#000000;fill-opacity:0.16470589;stroke:none;stroke-width:1.65337944px;stroke-linecap:butt;stroke-linejoin:miter;stroke-opacity:1;filter:url(#filter8311)"
           inkscape:original="M 297.72852 15.541016 C 291.50809 15.084579 284.2756 16.273847 277.05469 21.248047 C 257.79892 34.512574 263.66016 57.449219 263.66016 57.449219 L 376.31836 449.75 C 376.31836 449.75 384.83244 476.53781 409.22266 481.03125 C 433.61289 485.52467 451.11523 463.5293 451.11523 463.5293 L 696.17969 137.13281 C 696.17969 137.13281 709.83095 117.79092 696.56641 98.535156 C 683.30187 79.279375 660.36523 85.142578 660.36523 85.142578 C 660.36523 85.142578 614.19592 98.491468 543.16406 119.0293 C 472.1322 139.56712 413.08203 95.064453 413.08203 95.064453 L 315.65039 21.634766 C 315.65039 21.634766 308.09589 16.301743 297.72852 15.541016 z "
           inkscape:radius="0"
           sodipodi:type="inkscape:offset" />
        <path
           transform="translate(-19.610763,-19.610763)"
           d="m 297.72852,15.541016 c -6.22043,-0.456437 -13.45292,0.732831 -20.67383,5.707031 -19.25577,13.264527 -13.39453,36.201172 -13.39453,36.201172 L 376.31836,449.75 c 0,0 8.51408,26.78781 32.9043,31.28125 24.39023,4.49342 41.89257,-17.50195 41.89257,-17.50195 L 696.17969,137.13281 c 0,0 13.65126,-19.34189 0.38672,-38.597654 -13.26454,-19.255781 -36.20118,-13.392578 -36.20118,-13.392578 0,0 -46.16931,13.34889 -117.20117,33.886722 C 472.1322,139.56712 413.08203,95.064453 413.08203,95.064453 L 315.65039,21.634766 c 0,0 -7.5545,-5.333023 -17.92187,-6.09375 z"
           id="path8297"
           style="fill:#ffffff;fill-opacity:0.03529412;stroke:none;stroke-width:1.65337944px;stroke-linecap:butt;stroke-linejoin:miter;stroke-opacity:1;filter:url(#filter4619)"
           inkscape:original="M 297.72852 15.541016 C 291.50809 15.084579 284.2756 16.273847 277.05469 21.248047 C 257.79892 34.512574 263.66016 57.449219 263.66016 57.449219 L 376.31836 449.75 C 376.31836 449.75 384.83244 476.53781 409.22266 481.03125 C 433.61289 485.52467 451.11523 463.5293 451.11523 463.5293 L 696.17969 137.13281 C 696.17969 137.13281 709.83095 117.79092 696.56641 98.535156 C 683.30187 79.279375 660.36523 85.142578 660.36523 85.142578 C 660.36523 85.142578 614.19592 98.491468 543.16406 119.0293 C 472.1322 139.56712 413.08203 95.064453 413.08203 95.064453 L 315.65039 21.634766 C 315.65039 21.634766 308.09589 16.301743 297.72852 15.541016 z "
           inkscape:radius="0"
           sodipodi:type="inkscape:offset" />
        <path
           style="fill:#000000;fill-opacity:0.16470589;stroke:none;stroke-width:1.65337944px;stroke-linecap:butt;stroke-linejoin:miter;stroke-opacity:1;filter:url(#filter8315)"
           d="m 551.23616,35.069036 c -11.97068,-0.277862 -21.11415,6.176241 -21.11415,6.176241 l -69.50425,52.383141 c 15.64422,8.887662 52.20643,25.309652 93.04579,13.501552 13.09568,-3.78642 10.33539,-2.98894 21.60726,-6.24806 l 6.84176,-23.82401 c 0,0 5.86432,-22.935915 -13.39143,-36.200433 -6.01744,-4.145169 -12.04378,-5.662132 -17.48498,-5.788431 z M 177.45387,103.91258 c -7.88524,-0.0249 -19.9528,2.19921 -28.24314,14.23408 -13.26453,19.25576 0.38302,38.59432 0.38302,38.59432 L 347.86067,420.80163 263.59088,127.35356 185.41116,104.75044 c 0,0 -3.22615,-0.82291 -7.95729,-0.83786 z"
           id="path8291"
           inkscape:connector-curvature="0" />
        <path
           transform="matrix(2.4513453,0,0,2.4513453,101.55792,-65.110554)"
           inkscape:connector-curvature="0"
           id="path8219"
           d="m 175.44141,32.867188 c -4.88331,-0.113351 -8.61329,2.519531 -8.61329,2.519531 l -28.35351,21.36914 c 6.38189,3.625626 21.29705,10.324803 37.95703,5.507813 5.34224,-1.54463 4.21621,-1.219306 8.81445,-2.548828 l 2.79102,-9.71875 c 0,0 2.39229,-9.35646 -5.46289,-14.767578 -2.45475,-1.690977 -4.91313,-2.309806 -7.13281,-2.361328 z M 22.960938,60.951172 c -3.216697,-0.01016 -8.139531,0.897147 -11.521485,5.80664 -5.4111226,7.855182 0.15625,15.744141 0.15625,15.744141 L 92.476562,190.22266 58.099609,70.513672 26.207031,61.292969 c 0,0 -1.316076,-0.335699 -3.246093,-0.341797 z"
           style="fill:#3d3d3d;fill-opacity:1;stroke:none;stroke-width:0.67447841px;stroke-linecap:butt;stroke-linejoin:miter;stroke-opacity:1" />
        <path
           sodipodi:type="inkscape:offset"
           inkscape:radius="0"
           inkscape:original="M 297.72852 15.541016 C 291.50809 15.084579 284.2756 16.273847 277.05469 21.248047 C 257.79892 34.512574 263.66016 57.449219 263.66016 57.449219 L 376.31836 449.75 C 376.31836 449.75 384.83244 476.53781 409.22266 481.03125 C 433.61289 485.52467 451.11523 463.5293 451.11523 463.5293 L 696.17969 137.13281 C 696.17969 137.13281 709.83095 117.79092 696.56641 98.535156 C 683.30187 79.279375 660.36523 85.142578 660.36523 85.142578 C 660.36523 85.142578 614.19592 98.491468 543.16406 119.0293 C 472.1322 139.56712 413.08203 95.064453 413.08203 95.064453 L 315.65039 21.634766 C 315.65039 21.634766 308.09589 16.301743 297.72852 15.541016 z "
           style="fill:#3d3d3d;fill-opacity:1;stroke:none;stroke-width:1.65337944px;stroke-linecap:butt;stroke-linejoin:miter;stroke-opacity:1"
           id="path8283"
           d="m 297.72852,15.541016 c -6.22043,-0.456437 -13.45292,0.732831 -20.67383,5.707031 -19.25577,13.264527 -13.39453,36.201172 -13.39453,36.201172 L 376.31836,449.75 c 0,0 8.51408,26.78781 32.9043,31.28125 24.39023,4.49342 41.89257,-17.50195 41.89257,-17.50195 L 696.17969,137.13281 c 0,0 13.65126,-19.34189 0.38672,-38.597654 -13.26454,-19.255781 -36.20118,-13.392578 -36.20118,-13.392578 0,0 -46.16931,13.34889 -117.20117,33.886722 C 472.1322,139.56712 413.08203,95.064453 413.08203,95.064453 L 315.65039,21.634766 c 0,0 -7.5545,-5.333023 -17.92187,-6.09375 z" />
        <path
           sodipodi:type="inkscape:offset"
           inkscape:radius="4.1676664"
           inkscape:original="M 293.62109 25.291016 C 290.16925 25.550127 286.58311 26.558051 282.60156 29.300781 C 268.49559 39.017819 273.09441 54.878612 273.12695 54.990234 L 385.65234 446.82422 C 385.69091 446.93529 393.0622 468.11044 410.99414 471.41406 C 428.93075 474.71853 443.37153 457.54769 443.43945 457.4668 L 688.22266 131.44336 C 688.33245 131.29806 698.211 118.15937 688.51367 104.08203 C 678.81273 89.999438 663.00488 94.558047 662.8418 94.605469 C 662.65282 94.660106 616.76696 107.92618 545.88086 128.42188 C 469.83918 150.40821 407.19727 102.87305 407.19727 102.87305 L 309.98633 29.609375 C 309.94811 29.583627 304.37514 25.833131 297.01367 25.292969 C 295.90718 25.211777 294.77265 25.204574 293.62109 25.291016 z "
           style="fill:#1a4974;fill-opacity:1;stroke:none;stroke-width:1.65337944px;stroke-linecap:butt;stroke-linejoin:miter;stroke-opacity:1"
           id="path8346"
           d="m 293.30859,21.134766 c -4.04146,0.303371 -8.52075,1.599023 -13.07226,4.734375 -8.09963,5.57951 -11.103,13.346402 -11.8125,19.392578 -0.70781,6.031731 0.59545,10.529591 0.69726,10.878906 l 0.002,0.0098 c 9e-5,3.07e-4 0.002,0.0056 0.002,0.0059 l 112.52148,391.81836 a 4.1680832,4.1680832 0 0 0 0.0684,0.2168 c 0.0853,0.24574 2.05391,5.92336 6.50782,12.15429 4.4539,6.23094 11.58935,13.24713 22.01562,15.16797 10.42927,1.92139 19.60109,-2.09547 25.98438,-6.33203 6.38329,-4.23656 10.2244,-8.81626 10.4082,-9.03516 a 4.1680832,4.1680832 0 0 0 0.14062,-0.17773 l 244.7754,-326.01367 c 0.23528,-0.31138 3.0607,-4.05782 4.54101,-9.95313 1.48031,-5.89531 1.42477,-14.20319 -4.14258,-22.28515 -5.5696,-8.085237 -13.31586,-11.094709 -19.35351,-11.81055 -6.03765,-0.715841 -10.54478,0.58988 -10.91407,0.697266 C 661.4871,90.65863 615.6052,103.9233 544.72266,124.41797 470.80746,145.78946 409.7168,99.552734 409.7168,99.552734 a 4.1680832,4.1680832 0 0 0 -0.0117,-0.0078 L 312.49414,26.28125 a 4.1680832,4.1680832 0 0 0 -0.17969,-0.128906 c -0.19975,-0.13457 -6.38353,-4.383662 -14.99609,-5.015625 -1.29591,-0.09509 -2.63722,-0.104984 -4.00977,-0.002 z" />
        <path
           sodipodi:type="inkscape:offset"
           inkscape:radius="-2.3493953"
           inkscape:original="M 175.44141 32.867188 C 170.5581 32.753836 166.82812 35.386719 166.82812 35.386719 L 138.47461 56.755859 C 144.8565 60.381485 159.77166 67.080662 176.43164 62.263672 C 181.77388 60.719042 180.64785 61.044366 185.24609 59.714844 L 188.03711 49.996094 C 188.03711 49.996094 190.4294 40.639634 182.57422 35.228516 C 180.11947 33.537539 177.66109 32.918709 175.44141 32.867188 z M 22.960938 60.951172 C 19.744241 60.941012 14.821407 61.84832 11.439453 66.757812 C 6.0283305 74.612994 11.595703 82.501953 11.595703 82.501953 L 92.476562 190.22266 L 58.099609 70.513672 L 26.207031 61.292969 C 26.207031 61.292969 24.890955 60.95727 22.960938 60.951172 z "
           style="fill:#8a2b36;fill-opacity:1;stroke:none;stroke-width:0.67447841px;stroke-linecap:butt;stroke-linejoin:miter;stroke-opacity:1"
           id="path8350"
           d="m 175.38672,35.216797 c -4.00659,-0.093 -7.18902,2.082257 -7.19727,2.087891 -1e-5,7e-6 -0.006,0.002 -0.006,0.002 l -25.23632,19.021484 c 7.09615,3.452464 19.26058,7.60172 32.83203,3.677734 4.58679,-1.326203 4.80088,-1.387265 7.56836,-2.1875 l 2.41601,-8.417968 c 0.0112,-0.04089 2.09053,-7.68158 -4.52148,-12.236329 -2.0718,-1.427176 -4.03187,-1.904937 -5.85547,-1.947265 z M 22.953125,63.300781 c -2.767349,-0.0087 -6.723678,0.645339 -9.578125,4.789063 -4.5671618,6.630026 0.140625,13.05664 0.140625,13.05664 l 73.183594,97.468746 -30.5,-106.205074 -30.580078,-8.839844 c -0.0058,-0.0015 -1.009854,-0.264298 -2.666016,-0.269531 z"
           transform="matrix(2.4513453,0,0,2.4513453,101.55792,-65.110554)" />
      </g>
    </g>
  </g>
</svg>
